<?xml version="1.0" encoding="UTF-8"?>
<svg xmlns="http://www.w3.org/2000/svg" viewBox="0 0 64 64">
  <defs>
    <mask id="cup">
      <rect width="64" height="64" fill="#000"/>
      <path d="M12 25H44V42C44 48 41 52 37 55Q36 56 34 56H22Q20 56 19 55C15 52 12 48 12 42V25Z" fill="#fff"/>
      <path d="M44 25H48C55 25 60 30 60 36S55 47 48 47H41V41H48C51 41 54 39 54 36S51 31 48 31H44Z" fill="#fff"/>
      <ellipse cx="28" cy="25" rx="16" ry="5" fill="#fff"/>
      <ellipse cx="28" cy="25" rx="12" ry="2.5" fill="#000"/>
    </mask>
  </defs>
  <rect width="64" height="64" fill="#000" mask="url(#cup)"/>
  <path d="M19 18C15 14 23 11 19 7" fill="none" stroke="#000" stroke-width="3.5" stroke-linecap="round"/>
  <path d="M28 16C24 12 32 9 28 5" fill="none" stroke="#000" stroke-width="3.5" stroke-linecap="round"/>
  <path d="M37 18C33 14 41 11 37 7" fill="none" stroke="#000" stroke-width="3.5" stroke-linecap="round"/>
</svg>
